# xmcd
#
# Track frame offsets:
#	150
#	18525
#	37425
#	55875
#	76500
#	96375
#	112350
#	129975
#	147450
#	161625
#	177300
#	193050
#	209700
#	222300
#	239700
#	260550
#
# Disc length: 3494 seconds
#
# Revision: 0
# Processed by: cddbd v1.5.2PL0 Copyright (c) Steve Scherf et al.
# Submitted via: audiograbber 1.83.01
#
DISCID=030da410
DTITLE=Big Country - bcy010
DYEAR=1900
DGENRE=
TTITLE0=Rascal Flatts - My Wish
TTITLE1=Urban, Keith - Once In A Lifetime
TTITLE2=Underwood, Carrie - Starts With Goodbye
TTITLE3=Evans, Sasa - You'll Always Be My Baby
TTITLE4=Paisley, Brad - She's Everything
TTITLE5=Heartland - I Loved Her First
TTITLE6=Taylor Swift - Tim McGraw
TTITLE7=Bentley, Dierks - Every Mile A Memory
TTITLE8=Peck, Danielle - Findin' A Good Man
TTITLE9=Messina, Jo Dee - It's Too Late To Worry
TTITLE10=Strait, George - Give It Away
TTITLE11=Tomlinson, Trent - One Wing In The Fire
TTITLE12=Ingram, Jack - Love You
TTITLE13=Rimes, LeAnn - Some People
TTITLE14=Rascal Flatts - Life Is A Highway
TTITLE15=x - xx
EXTD=
EXTT0=
EXTT1=
EXTT2=
EXTT3=
EXTT4=
EXTT5=
EXTT6=
EXTT7=
EXTT8=
EXTT9=
EXTT10=
EXTT11=
EXTT12=
EXTT13=
EXTT14=
EXTT15=
PLAYORDER=
